<svg width="629" height="119" viewBox="0 0 629 119" fill="none" xmlns="http://www.w3.org/2000/svg">
<path d="M62.44 87.96C62.9733 89.1867 62.8933 90.3067 62.2 91.32C61.4 92.44 60.3867 93 59.16 93H56.76C56.0667 93 55.3733 92.7867 54.68 92.36C54.04 91.9333 53.5867 91.4 53.32 90.76L45.8 72.76C45.5333 72.12 45.0533 71.8 44.36 71.8H36.92C36.2267 71.8 35.88 72.1467 35.88 72.84V89.32C35.88 90.3333 35.5067 91.2133 34.76 91.96C34.0667 92.6533 33.2133 93 32.2 93H29.96C28.9467 93 28.0933 92.6533 27.4 91.96C26.76 91.2133 26.44 90.3333 26.44 89.32V42.6C26.44 41.5333 26.76 40.6533 27.4 39.96C28.0933 39.2667 28.9467 38.92 29.96 38.92H51.64C53.56 38.92 55.32 39.4 56.92 40.36C58.52 41.32 59.8 42.6 60.76 44.2C61.72 45.8 62.2 47.5867 62.2 49.56V61.24C62.2 63.32 61.64 65.2133 60.52 66.92C59.4533 68.5733 58.04 69.8533 56.28 70.76C56.0667 70.8133 55.9067 71 55.8 71.32C55.6933 71.5867 55.72 71.8533 55.88 72.12L62.44 87.96ZM52.68 61.24V49.56C52.68 48.8133 52.3333 48.44 51.64 48.44H36.92C36.2267 48.44 35.88 48.7867 35.88 49.48V61.24C35.88 61.9333 36.2267 62.28 36.92 62.28H51.64C52.3333 62.28 52.68 61.9333 52.68 61.24ZM98.285 84.04C98.285 86.5467 97.405 88.68 95.645 90.44C93.9383 92.1467 91.8583 93 89.405 93H78.285C75.8317 93 73.725 92.1467 71.965 90.44C70.205 88.68 69.325 86.5467 69.325 84.04V75.32C69.325 73.6667 69.725 72.2 70.525 70.92C71.3783 69.5867 72.4717 68.52 73.805 67.72C75.1383 66.92 76.6317 66.52 78.285 66.52H87.725C87.9917 66.52 88.2317 66.4133 88.445 66.2C88.7117 65.9867 88.845 65.72 88.845 65.4V62.2C88.845 61.88 88.7117 61.6133 88.445 61.4C88.2317 61.1867 87.9917 61.08 87.725 61.08H78.285C77.2717 61.08 76.3917 60.7333 75.645 60.04C74.9517 59.3467 74.605 58.4933 74.605 57.48V55.32C74.605 54.2533 74.9517 53.3733 75.645 52.68C76.3917 51.9333 77.2717 51.56 78.285 51.56H89.405C91.0583 51.56 92.5517 51.96 93.885 52.76C95.2183 53.56 96.285 54.6533 97.085 56.04C97.885 57.3733 98.285 58.8667 98.285 60.52V84.04ZM88.845 82.52V77C88.845 76.7333 88.7117 76.4933 88.445 76.28C88.2317 76.0667 87.9917 75.96 87.725 75.96H79.965C79.6983 75.96 79.4317 76.0667 79.165 76.28C78.9517 76.4933 78.845 76.7333 78.845 77V82.52C78.845 82.7867 78.9517 83.0267 79.165 83.24C79.4317 83.4533 79.6983 83.56 79.965 83.56H87.725C87.9917 83.56 88.2317 83.4533 88.445 83.24C88.7117 83.0267 88.845 82.7867 88.845 82.52ZM116.874 44.04C116.874 45.6933 116.26 47.1333 115.034 48.36C113.86 49.5333 112.474 50.12 110.874 50.12C109.22 50.12 107.78 49.5333 106.554 48.36C105.38 47.1333 104.794 45.6933 104.794 44.04C104.794 42.44 105.38 41.0533 106.554 39.88C107.78 38.6533 109.22 38.04 110.874 38.04C112.474 38.04 113.86 38.6533 115.034 39.88C116.26 41.0533 116.874 42.44 116.874 44.04ZM115.594 89.32C115.594 90.3333 115.22 91.2133 114.474 91.96C113.78 92.6533 112.927 93 111.914 93H109.754C108.74 93 107.86 92.6533 107.114 91.96C106.42 91.2133 106.074 90.3333 106.074 89.32V56.12C106.074 55.1067 106.42 54.2533 107.114 53.56C107.86 52.8133 108.74 52.44 109.754 52.44H111.914C112.927 52.44 113.78 52.8133 114.474 53.56C115.22 54.2533 115.594 55.1067 115.594 56.12V89.32ZM152.269 96.84C152.269 98.44 151.869 99.9067 151.069 101.24C150.269 102.627 149.203 103.72 147.869 104.52C146.536 105.373 145.043 105.8 143.389 105.8H132.269C131.256 105.8 130.376 105.427 129.629 104.68C128.936 103.987 128.589 103.133 128.589 102.12V99.88C128.589 98.8667 128.936 98.0133 129.629 97.32C130.376 96.6267 131.256 96.28 132.269 96.28H141.709C141.976 96.28 142.216 96.1733 142.429 95.96C142.696 95.7467 142.829 95.5067 142.829 95.24V94.04C142.829 93.7733 142.696 93.5333 142.429 93.32C142.216 93.1067 141.976 93 141.709 93H132.269C129.816 93 127.709 92.1467 125.949 90.44C124.189 88.68 123.309 86.5467 123.309 84.04V60.52C123.309 58.8667 123.709 57.3733 124.509 56.04C125.363 54.6533 126.456 53.56 127.789 52.76C129.123 51.96 130.616 51.56 132.269 51.56H143.389C145.043 51.56 146.536 51.96 147.869 52.76C149.203 53.56 150.269 54.6533 151.069 56.04C151.869 57.3733 152.269 58.8667 152.269 60.52V96.84ZM142.829 82.52V62.2C142.829 61.88 142.696 61.6133 142.429 61.4C142.216 61.1867 141.976 61.08 141.709 61.08H133.949C133.683 61.08 133.416 61.1867 133.149 61.4C132.936 61.6133 132.829 61.88 132.829 62.2V82.52C132.829 82.7867 132.936 83.0267 133.149 83.24C133.416 83.4533 133.683 83.56 133.949 83.56H141.709C141.976 83.56 142.216 83.4533 142.429 83.24C142.696 83.0267 142.829 82.7867 142.829 82.52ZM187.738 84.04C187.738 86.5467 186.858 88.68 185.098 90.44C183.391 92.1467 181.311 93 178.858 93H167.738C165.285 93 163.178 92.1467 161.418 90.44C159.658 88.68 158.778 86.5467 158.778 84.04V60.52C158.778 58.8667 159.178 57.3733 159.978 56.04C160.831 54.6533 161.925 53.56 163.258 52.76C164.591 51.96 166.085 51.56 167.738 51.56H178.858C180.511 51.56 182.005 51.96 183.338 52.76C184.671 53.56 185.738 54.6533 186.538 56.04C187.338 57.3733 187.738 58.8667 187.738 60.52V84.04ZM178.298 82.52V62.2C178.298 61.88 178.165 61.6133 177.898 61.4C177.685 61.1867 177.445 61.08 177.178 61.08H169.418C169.151 61.08 168.885 61.1867 168.618 61.4C168.405 61.6133 168.298 61.88 168.298 62.2V82.52C168.298 82.7867 168.405 83.0267 168.618 83.24C168.885 83.4533 169.151 83.56 169.418 83.56H177.178C177.445 83.56 177.685 83.4533 177.898 83.24C178.165 83.0267 178.298 82.7867 178.298 82.52ZM223.207 89.32C223.207 90.3333 222.86 91.2133 222.167 91.96C221.474 92.6533 220.62 93 219.607 93H217.367C216.354 93 215.5 92.6533 214.807 91.96C214.114 91.2133 213.767 90.3333 213.767 89.32V62.2C213.767 61.88 213.634 61.6133 213.367 61.4C213.154 61.1867 212.914 61.08 212.647 61.08H204.887C204.62 61.08 204.354 61.1867 204.087 61.4C203.874 61.6133 203.767 61.88 203.767 62.2V89.32C203.767 90.3333 203.42 91.2133 202.727 91.96C202.034 92.6533 201.18 93 200.167 93H197.927C196.914 93 196.034 92.6533 195.287 91.96C194.594 91.2133 194.247 90.3333 194.247 89.32V60.52C194.247 58.8667 194.647 57.3733 195.447 56.04C196.3 54.6533 197.394 53.56 198.727 52.76C200.06 51.96 201.554 51.56 203.207 51.56H214.327C215.98 51.56 217.474 51.96 218.807 52.76C220.14 53.56 221.207 54.6533 222.007 56.04C222.807 57.3733 223.207 58.8667 223.207 60.52V89.32ZM283.753 89.32C283.753 90.3333 283.406 91.2133 282.713 91.96C282.02 92.6533 281.14 93 280.073 93H277.913C276.9 93 276.02 92.6533 275.273 91.96C274.58 91.2133 274.233 90.3333 274.233 89.32V71.72C274.233 71.08 273.886 70.76 273.193 70.76H258.793C258.1 70.76 257.753 71.08 257.753 71.72V89.32C257.753 90.3333 257.38 91.2133 256.633 91.96C255.94 92.6533 255.086 93 254.073 93H251.833C250.82 93 249.94 92.6533 249.193 91.96C248.5 91.2133 248.153 90.3333 248.153 89.32V42.6C248.153 41.5333 248.5 40.6533 249.193 39.96C249.94 39.2667 250.82 38.92 251.833 38.92H254.073C255.086 38.92 255.94 39.2667 256.633 39.96C257.38 40.6533 257.753 41.5333 257.753 42.6V60.12C257.753 60.8667 258.1 61.24 258.793 61.24H273.193C273.886 61.24 274.233 60.8667 274.233 60.12V42.6C274.233 41.5333 274.58 40.6533 275.273 39.96C276.02 39.2667 276.9 38.92 277.913 38.92H280.073C281.14 38.92 282.02 39.2667 282.713 39.96C283.406 40.6533 283.753 41.5333 283.753 42.6V89.32ZM302.343 44.04C302.343 45.6933 301.729 47.1333 300.503 48.36C299.329 49.5333 297.943 50.12 296.343 50.12C294.689 50.12 293.249 49.5333 292.023 48.36C290.849 47.1333 290.263 45.6933 290.263 44.04C290.263 42.44 290.849 41.0533 292.023 39.88C293.249 38.6533 294.689 38.04 296.343 38.04C297.943 38.04 299.329 38.6533 300.503 39.88C301.729 41.0533 302.343 42.44 302.343 44.04ZM301.063 89.32C301.063 90.3333 300.689 91.2133 299.943 91.96C299.249 92.6533 298.396 93 297.383 93H295.223C294.209 93 293.329 92.6533 292.583 91.96C291.889 91.2133 291.543 90.3333 291.543 89.32V56.12C291.543 55.1067 291.889 54.2533 292.583 53.56C293.329 52.8133 294.209 52.44 295.223 52.44H297.383C298.396 52.44 299.249 52.8133 299.943 53.56C300.689 54.2533 301.063 55.1067 301.063 56.12V89.32ZM337.738 96.84C337.738 98.44 337.338 99.9067 336.538 101.24C335.738 102.627 334.671 103.72 333.338 104.52C332.005 105.373 330.511 105.8 328.858 105.8H317.738C316.725 105.8 315.845 105.427 315.098 104.68C314.405 103.987 314.058 103.133 314.058 102.12V99.88C314.058 98.8667 314.405 98.0133 315.098 97.32C315.845 96.6267 316.725 96.28 317.738 96.28H327.178C327.445 96.28 327.685 96.1733 327.898 95.96C328.165 95.7467 328.298 95.5067 328.298 95.24V94.04C328.298 93.7733 328.165 93.5333 327.898 93.32C327.685 93.1067 327.445 93 327.178 93H317.738C315.285 93 313.178 92.1467 311.418 90.44C309.658 88.68 308.778 86.5467 308.778 84.04V60.52C308.778 58.8667 309.178 57.3733 309.978 56.04C310.831 54.6533 311.925 53.56 313.258 52.76C314.591 51.96 316.085 51.56 317.738 51.56H328.858C330.511 51.56 332.005 51.96 333.338 52.76C334.671 53.56 335.738 54.6533 336.538 56.04C337.338 57.3733 337.738 58.8667 337.738 60.52V96.84ZM328.298 82.52V62.2C328.298 61.88 328.165 61.6133 327.898 61.4C327.685 61.1867 327.445 61.08 327.178 61.08H319.418C319.151 61.08 318.885 61.1867 318.618 61.4C318.405 61.6133 318.298 61.88 318.298 62.2V82.52C318.298 82.7867 318.405 83.0267 318.618 83.24C318.885 83.4533 319.151 83.56 319.418 83.56H327.178C327.445 83.56 327.685 83.4533 327.898 83.24C328.165 83.0267 328.298 82.7867 328.298 82.52ZM373.207 89.32C373.207 90.3333 372.86 91.2133 372.167 91.96C371.474 92.6533 370.62 93 369.607 93H367.367C366.354 93 365.5 92.6533 364.807 91.96C364.114 91.2133 363.767 90.3333 363.767 89.32V62.2C363.767 61.88 363.634 61.6133 363.367 61.4C363.154 61.1867 362.914 61.08 362.647 61.08H354.887C354.62 61.08 354.354 61.1867 354.087 61.4C353.874 61.6133 353.767 61.88 353.767 62.2V89.32C353.767 90.3333 353.42 91.2133 352.727 91.96C352.034 92.6533 351.18 93 350.167 93H347.927C346.914 93 346.034 92.6533 345.287 91.96C344.594 91.2133 344.247 90.3333 344.247 89.32V42.6C344.247 41.5333 344.594 40.6533 345.287 39.96C346.034 39.2667 346.914 38.92 347.927 38.92H350.167C351.18 38.92 352.034 39.2667 352.727 39.96C353.42 40.6533 353.767 41.5333 353.767 42.6V50.6C353.767 50.8667 353.874 51.1067 354.087 51.32C354.354 51.48 354.62 51.56 354.887 51.56H364.327C365.98 51.56 367.474 51.96 368.807 52.76C370.14 53.56 371.207 54.6533 372.007 56.04C372.807 57.3733 373.207 58.8667 373.207 60.52V89.32ZM434.793 82.44C434.793 84.36 434.313 86.12 433.353 87.72C432.393 89.32 431.113 90.6 429.513 91.56C427.913 92.52 426.153 93 424.233 93H408.873C406.953 93 405.166 92.52 403.513 91.56C401.913 90.6 400.633 89.32 399.673 87.72C398.713 86.12 398.233 84.36 398.233 82.44V80.04C398.233 79.0267 398.58 78.1733 399.273 77.48C400.02 76.7333 400.9 76.36 401.913 76.36H404.153C405.113 76.36 405.94 76.7333 406.633 77.48C407.38 78.1733 407.753 79.0267 407.753 80.04V82.44C407.753 82.7067 407.86 82.9733 408.073 83.24C408.34 83.4533 408.606 83.56 408.873 83.56H424.233C424.5 83.56 424.74 83.4533 424.953 83.24C425.166 82.9733 425.273 82.7067 425.273 82.44V75.16C425.273 74.5733 425.006 74.2 424.473 74.04L405.273 66.84C403.14 66.0933 401.433 64.7867 400.153 62.92C398.873 61.0533 398.233 59 398.233 56.76V49.56C398.233 47.5867 398.713 45.8 399.673 44.2C400.633 42.6 401.913 41.32 403.513 40.36C405.166 39.4 406.953 38.92 408.873 38.92H424.233C426.153 38.92 427.913 39.4 429.513 40.36C431.113 41.32 432.393 42.6 433.353 44.2C434.313 45.8 434.793 47.5867 434.793 49.56V51.72C434.793 52.7333 434.42 53.5867 433.673 54.28C432.98 54.9733 432.126 55.32 431.113 55.32H428.953C427.94 55.32 427.06 54.9733 426.313 54.28C425.62 53.5867 425.273 52.7333 425.273 51.72V49.56C425.273 48.8133 424.926 48.44 424.233 48.44H408.873C408.606 48.44 408.34 48.5467 408.073 48.76C407.86 48.9733 407.753 49.24 407.753 49.56V56.76C407.753 57.4 408.02 57.8 408.553 57.96L427.833 65.16C429.913 65.9067 431.593 67.2133 432.873 69.08C434.153 70.9467 434.793 72.9733 434.793 75.16V82.44ZM470.238 84.04C470.238 86.5467 469.358 88.68 467.598 90.44C465.891 92.1467 463.811 93 461.358 93H450.238C447.785 93 445.678 92.1467 443.918 90.44C442.158 88.68 441.278 86.5467 441.278 84.04V60.52C441.278 58.8667 441.678 57.3733 442.478 56.04C443.331 54.6533 444.425 53.56 445.758 52.76C447.091 51.96 448.585 51.56 450.238 51.56H461.358C463.011 51.56 464.505 51.96 465.838 52.76C467.171 53.56 468.238 54.6533 469.038 56.04C469.838 57.3733 470.238 58.8667 470.238 60.52V64.68C470.238 65.6933 469.891 66.5733 469.198 67.32C468.505 68.0133 467.651 68.36 466.638 68.36H464.398C463.385 68.36 462.531 68.0133 461.838 67.32C461.145 66.5733 460.798 65.6933 460.798 64.68V62.2C460.798 61.88 460.665 61.6133 460.398 61.4C460.185 61.1867 459.945 61.08 459.678 61.08H451.918C451.651 61.08 451.385 61.1867 451.118 61.4C450.905 61.6133 450.798 61.88 450.798 62.2V82.52C450.798 82.7867 450.905 83.0267 451.118 83.24C451.385 83.4533 451.651 83.56 451.918 83.56H459.678C459.945 83.56 460.185 83.4533 460.398 83.24C460.665 83.0267 460.798 82.7867 460.798 82.52V80.04C460.798 79.0267 461.145 78.1733 461.838 77.48C462.531 76.7333 463.385 76.36 464.398 76.36H466.638C467.651 76.36 468.505 76.7333 469.198 77.48C469.891 78.1733 470.238 79.0267 470.238 80.04V84.04ZM505.707 89.32C505.707 90.3333 505.36 91.2133 504.667 91.96C503.974 92.6533 503.12 93 502.107 93H499.867C498.854 93 498 92.6533 497.307 91.96C496.614 91.2133 496.267 90.3333 496.267 89.32V62.2C496.267 61.88 496.134 61.6133 495.867 61.4C495.654 61.1867 495.414 61.08 495.147 61.08H487.387C487.12 61.08 486.854 61.1867 486.587 61.4C486.374 61.6133 486.267 61.88 486.267 62.2V89.32C486.267 90.3333 485.92 91.2133 485.227 91.96C484.534 92.6533 483.68 93 482.667 93H480.427C479.414 93 478.534 92.6533 477.787 91.96C477.094 91.2133 476.747 90.3333 476.747 89.32V42.6C476.747 41.5333 477.094 40.6533 477.787 39.96C478.534 39.2667 479.414 38.92 480.427 38.92H482.667C483.68 38.92 484.534 39.2667 485.227 39.96C485.92 40.6533 486.267 41.5333 486.267 42.6V50.6C486.267 50.8667 486.374 51.1067 486.587 51.32C486.854 51.48 487.12 51.56 487.387 51.56H496.827C498.48 51.56 499.974 51.96 501.307 52.76C502.64 53.56 503.707 54.6533 504.507 56.04C505.307 57.3733 505.707 58.8667 505.707 60.52V89.32ZM541.176 84.04C541.176 86.5467 540.296 88.68 538.536 90.44C536.829 92.1467 534.749 93 532.296 93H521.176C518.722 93 516.616 92.1467 514.856 90.44C513.096 88.68 512.216 86.5467 512.216 84.04V60.52C512.216 58.8667 512.616 57.3733 513.416 56.04C514.269 54.6533 515.362 53.56 516.696 52.76C518.029 51.96 519.522 51.56 521.176 51.56H532.296C533.949 51.56 535.442 51.96 536.776 52.76C538.109 53.56 539.176 54.6533 539.976 56.04C540.776 57.3733 541.176 58.8667 541.176 60.52V84.04ZM531.736 82.52V62.2C531.736 61.88 531.602 61.6133 531.336 61.4C531.122 61.1867 530.882 61.08 530.616 61.08H522.856C522.589 61.08 522.322 61.1867 522.056 61.4C521.842 61.6133 521.736 61.88 521.736 62.2V82.52C521.736 82.7867 521.842 83.0267 522.056 83.24C522.322 83.4533 522.589 83.56 522.856 83.56H530.616C530.882 83.56 531.122 83.4533 531.336 83.24C531.602 83.0267 531.736 82.7867 531.736 82.52ZM576.644 84.04C576.644 86.5467 575.764 88.68 574.004 90.44C572.298 92.1467 570.218 93 567.764 93H556.644C554.191 93 552.084 92.1467 550.324 90.44C548.564 88.68 547.684 86.5467 547.684 84.04V60.52C547.684 58.8667 548.084 57.3733 548.884 56.04C549.738 54.6533 550.831 53.56 552.164 52.76C553.498 51.96 554.991 51.56 556.644 51.56H567.764C569.418 51.56 570.911 51.96 572.244 52.76C573.578 53.56 574.644 54.6533 575.444 56.04C576.244 57.3733 576.644 58.8667 576.644 60.52V84.04ZM567.204 82.52V62.2C567.204 61.88 567.071 61.6133 566.804 61.4C566.591 61.1867 566.351 61.08 566.084 61.08H558.324C558.058 61.08 557.791 61.1867 557.524 61.4C557.311 61.6133 557.204 61.88 557.204 62.2V82.52C557.204 82.7867 557.311 83.0267 557.524 83.24C557.791 83.4533 558.058 83.56 558.324 83.56H566.084C566.351 83.56 566.591 83.4533 566.804 83.24C567.071 83.0267 567.204 82.7867 567.204 82.52ZM597.713 89.32C597.713 90.3333 597.34 91.2133 596.593 91.96C595.9 92.6533 595.046 93 594.033 93H592.033C589.58 93 587.473 92.1467 585.713 90.44C583.953 88.68 583.073 86.5467 583.073 84.04V42.6C583.073 41.5333 583.42 40.6533 584.113 39.96C584.86 39.2667 585.74 38.92 586.753 38.92H588.993C590.006 38.92 590.86 39.2667 591.553 39.96C592.3 40.6533 592.673 41.5333 592.673 42.6V82.52C592.673 83.2133 592.993 83.56 593.633 83.56H594.033C595.046 83.56 595.9 83.9067 596.593 84.6C597.34 85.2933 597.713 86.1733 597.713 87.24V89.32Z" fill="url(#paint0_linear_2_2)"/>
<defs>
<linearGradient id="paint0_linear_2_2" x1="337" y1="-28" x2="324.5" y2="461" gradientUnits="userSpaceOnUse">
<stop/>
<stop offset="1" stop-color="white" stop-opacity="0"/>
</linearGradient>
</defs>
</svg>
